<svg version="1.1" id="Layer_1" xmlns="http://www.w3.org/2000/svg" xmlns:xlink="http://www.w3.org/1999/xlink" x="0px" y="0px"
	 width="100%" viewBox="0 0 141 138" enable-background="new 0 0 141 138" xml:space="preserve">
<path fill="#FEFDFF" opacity="1.000000" stroke="none" 
	d="
M142.000000,52.000000 
	C142.000000,81.307487 142.000000,110.114967 142.000000,138.961227 
	C95.068016,138.961227 48.135986,138.961227 1.101978,138.961227 
	C1.101978,93.109428 1.101978,47.218552 1.101978,1.163838 
	C47.999531,1.163838 94.999718,1.163838 142.000000,1.163838 
	C142.000000,17.863646 142.000000,34.681824 142.000000,52.000000 
M138.997253,55.500000 
	C138.997253,37.747272 138.997253,19.994543 138.997253,2.002782 
	C136.824936,2.002782 135.342575,2.002779 133.860229,2.002783 
	C101.702187,2.002859 69.544121,1.983788 37.386097,2.009883 
	C16.655802,2.026705 3.019866,15.731107 3.007719,36.536388 
	C2.989236,68.194550 3.002811,99.852737 3.002771,131.510910 
	C3.002769,133.265884 3.002771,135.020844 3.002771,136.996979 
	C37.352650,136.996979 70.995209,136.997787 104.637764,136.994019 
	C105.970222,136.993866 107.307640,137.016129 108.634377,136.916489 
	C125.931160,135.617477 138.889893,121.830193 138.979034,104.487038 
	C139.061234,88.491745 138.996979,72.495712 138.997253,55.500000 
z"/>
<path fill="#9B0ED3" opacity="1.000000" stroke="none" 
	d="
M138.997253,56.000000 
	C138.996979,72.495712 139.061234,88.491745 138.979034,104.487038 
	C138.889893,121.830193 125.931160,135.617477 108.634377,136.916489 
	C107.307640,137.016129 105.970222,136.993866 104.637764,136.994019 
	C70.995209,136.997787 37.352650,136.996979 3.002771,136.996979 
	C3.002771,135.020844 3.002769,133.265884 3.002771,131.510910 
	C3.002811,99.852737 2.989236,68.194550 3.007719,36.536388 
	C3.019866,15.731107 16.655802,2.026705 37.386097,2.009883 
	C69.544121,1.983788 101.702187,2.002859 133.860229,2.002783 
	C135.342575,2.002779 136.824936,2.002782 138.997253,2.002782 
	C138.997253,19.994543 138.997253,37.747272 138.997253,56.000000 
M64.892326,47.361282 
	C58.199402,54.547771 51.629848,61.854317 44.782497,68.890526 
	C36.120453,77.791473 29.306664,87.635513 27.485836,100.249229 
	C26.320929,108.319069 27.032475,116.151382 30.461170,124.142136 
	C32.635609,122.253067 34.270641,120.848274 35.888828,119.424339 
	C49.646770,107.318016 63.780056,95.763443 79.999664,86.955841 
	C92.314316,80.268715 103.155006,71.829178 109.263954,58.667686 
	C110.617104,55.752399 111.468361,52.604156 112.550720,49.563179 
	C99.203598,65.795303 89.441277,75.021477 82.160583,76.323235 
	C84.337601,73.705551 86.345367,71.723969 87.841187,69.411270 
	C92.241394,62.608101 97.417496,56.081329 100.492882,48.697876 
	C105.503113,36.669235 98.972198,19.405752 88.895378,13.969967 
	C81.000778,24.935152 73.141319,35.851536 64.892326,47.361282 
z"/>
<path fill="#FCF8FE" opacity="1.000000" stroke="none" 
	d="
M65.087097,47.064598 
	C73.141319,35.851536 81.000778,24.935152 88.895378,13.969967 
	C98.972198,19.405752 105.503113,36.669235 100.492882,48.697876 
	C97.417496,56.081329 92.241394,62.608101 87.841187,69.411270 
	C86.345367,71.723969 84.337601,73.705551 82.160583,76.323235 
	C89.441277,75.021477 99.203598,65.795303 112.550720,49.563179 
	C111.468361,52.604156 110.617104,55.752399 109.263954,58.667686 
	C103.155006,71.829178 92.314316,80.268715 79.999664,86.955841 
	C63.780056,95.763443 49.646770,107.318016 35.888828,119.424339 
	C34.270641,120.848274 32.635609,122.253067 30.461170,124.142136 
	C27.032475,116.151382 26.320929,108.319069 27.485836,100.249229 
	C29.306664,87.635513 36.120453,77.791473 44.782497,68.890526 
	C51.629848,61.854317 58.199402,54.547771 65.087097,47.064598 
M58.163837,79.748665 
	C54.379505,74.707451 50.050201,73.193886 45.385662,75.281296 
	C41.148106,77.177628 38.752697,81.827156 39.724159,86.270370 
	C40.928356,91.778038 45.760410,94.953293 51.241024,93.838371 
	C57.260689,92.613785 59.971809,87.660721 58.163837,79.748665 
M69.474983,55.796757 
	C62.815269,56.713333 58.873806,60.725178 59.254372,66.199883 
	C59.599491,71.164696 63.619820,74.944504 68.805328,75.179459 
	C73.992668,75.414482 78.323944,71.970345 79.008835,67.065819 
	C79.771263,61.606052 76.285126,57.141178 69.474983,55.796757 
M76.044624,44.069740 
	C75.369255,51.201801 78.523293,55.634972 84.611023,56.110279 
	C90.319870,56.556000 95.064636,52.489449 95.427620,46.839798 
	C95.709587,42.451077 92.760063,38.376045 88.378059,37.100216 
	C83.462166,35.668934 79.579796,37.625694 76.044624,44.069740 
z"/>
<path fill="#9E15D4" opacity="1.000000" stroke="none" 
	d="
M58.373470,80.086731 
	C59.971809,87.660721 57.260689,92.613785 51.241024,93.838371 
	C45.760410,94.953293 40.928356,91.778038 39.724159,86.270370 
	C38.752697,81.827156 41.148106,77.177628 45.385662,75.281296 
	C50.050201,73.193886 54.379505,74.707451 58.373470,80.086731 
z"/>
<path fill="#9E14D4" opacity="1.000000" stroke="none" 
	d="
M69.882553,55.848022 
	C76.285126,57.141178 79.771263,61.606052 79.008835,67.065819 
	C78.323944,71.970345 73.992668,75.414482 68.805328,75.179459 
	C63.619820,74.944504 59.599491,71.164696 59.254372,66.199883 
	C58.873806,60.725178 62.815269,56.713333 69.882553,55.848022 
z"/>
<path fill="#9D17D2" opacity="1.000000" stroke="none" 
	d="
M76.102493,43.663910 
	C79.579796,37.625694 83.462166,35.668934 88.378059,37.100216 
	C92.760063,38.376045 95.709587,42.451077 95.427620,46.839798 
	C95.064636,52.489449 90.319870,56.556000 84.611023,56.110279 
	C78.523293,55.634972 75.369255,51.201801 76.102493,43.663910 
z"/>
</svg>